<svg xmlns="http://www.w3.org/2000/svg" width="24" height="24" viewBox="0 0 24 24" fill="none"><metadata><rdf:RDF xmlns:rdf="http://www.w3.org/1999/02/22-rdf-syntax-ns#" xmlns:dc="http://purl.org/dc/elements/1.1/"><rdf:Description><dc:creator>RealFaviconGenerator</dc:creator><dc:source>https://realfavicongenerator.net</dc:source></rdf:Description></rdf:RDF></metadata><rect width="24" height="24" rx="4" fill="black"></rect><path d="M4.588 17V6.78H6.954L7.892 10C7.99467 10.336 8.06933 10.63 8.116 10.882C8.172 11.134 8.20467 11.3113 8.214 11.414C8.22333 11.3113 8.25133 11.134 8.298 10.882C8.354 10.63 8.42867 10.336 8.522 10L9.446 6.78H11.812V17H9.894V14.2C9.894 13.6867 9.90333 13.15 9.922 12.59C9.95 12.0207 9.98267 11.456 10.02 10.896C10.0573 10.336 10.0993 9.81333 10.146 9.328C10.1927 8.83333 10.2347 8.404 10.272 8.04L9.096 12.66H7.318L6.086 8.04C6.13267 8.38533 6.17933 8.80067 6.226 9.286C6.27267 9.762 6.31467 10.28 6.352 10.84C6.39867 11.3907 6.436 11.9553 6.464 12.534C6.492 13.1127 6.506 13.668 6.506 14.2V17H4.588ZM16.6505 17.14C15.9692 17.14 15.3719 17.014 14.8585 16.762C14.3452 16.5007 13.9439 16.1413 13.6545 15.684C13.3745 15.2173 13.2345 14.676 13.2345 14.06V9.72C13.2345 9.09467 13.3745 8.55333 13.6545 8.096C13.9439 7.63867 14.3452 7.284 14.8585 7.032C15.3719 6.77067 15.9692 6.64 16.6505 6.64C17.3412 6.64 17.9385 6.77067 18.4425 7.032C18.9559 7.284 19.3525 7.63867 19.6325 8.096C19.9219 8.55333 20.0665 9.09467 20.0665 9.72H17.9665C17.9665 9.30933 17.8499 8.99667 17.6165 8.782C17.3925 8.56733 17.0705 8.46 16.6505 8.46C16.2305 8.46 15.9039 8.56733 15.6705 8.782C15.4465 8.99667 15.3345 9.30933 15.3345 9.72V14.06C15.3345 14.4613 15.4465 14.774 15.6705 14.998C15.9039 15.2127 16.2305 15.32 16.6505 15.32C17.0705 15.32 17.3925 15.2127 17.6165 14.998C17.8499 14.774 17.9665 14.4613 17.9665 14.06H20.0665C20.0665 14.676 19.9219 15.2173 19.6325 15.684C19.3525 16.1413 18.9559 16.5007 18.4425 16.762C17.9385 17.014 17.3412 17.14 16.6505 17.14Z" fill="white"></path></svg>