<svg width="64" height="64" viewBox="0 0 64 64" fill="none" xmlns="http://www.w3.org/2000/svg">
<path d="M52.4714 39.9133L47.4392 35.372" stroke="#2C3134" stroke-width="4"/>
<path d="M29.8081 19.4611L20.4275 10.9956" stroke="#2C3134" stroke-width="4"/>
<path d="M52.6653 12.3347L46.1091 18.8909" stroke="#2C3134" stroke-width="4"/>
<path d="M29.0996 35.9004L15.2212 49.7788" stroke="#2C3134" stroke-width="4"/>
<path d="M55 13C53.3431 13 52 11.6569 52 10C52 8.34315 53.3431 7 55 7C56.6569 7 58 8.34315 58 10C58 11.6569 56.6569 13 55 13Z" stroke="#2C3134" stroke-width="4"/>
<path d="M56.5 49C53.4624 49 51 46.5376 51 43.5C51 40.4624 53.4624 38 56.5 38C59.5376 38 62 40.4624 62 43.5C62 46.5376 59.5376 49 56.5 49Z" stroke="#2C3134" stroke-width="4"/>
<path d="M16.5 13C13.4624 13 11 10.5376 11 7.5C11 4.46243 13.4624 2 16.5 2C19.5376 2 22 4.46243 22 7.5C22 10.5376 19.5376 13 16.5 13Z" stroke="#2C3134" stroke-width="4"/>
<path d="M9.5 62C5.35786 62 2 58.6421 2 54.5C2 50.3579 5.35786 47 9.5 47C13.6421 47 17 50.3579 17 54.5C17 58.6421 13.6421 62 9.5 62Z" stroke="#2C3134" stroke-width="4"/>
<path d="M38 40C31.3726 40 26 34.6274 26 28C26 21.3726 31.3726 16 38 16C44.6274 16 50 21.3726 50 28C50 34.6274 44.6274 40 38 40Z" stroke="#2C3134" stroke-width="4"/>
<path d="M38 33C35.2386 33 33 30.7614 33 28C33 25.2386 35.2386 23 38 23C40.7614 23 43 25.2386 43 28C43 30.7614 40.7614 33 38 33Z" stroke="#2C3134" stroke-width="4"/>
</svg>
