<svg preserveAspectRatio="none" width="100%" height="100%" overflow="visible" style="display: block;" viewBox="0 0 11 16" fill="none" xmlns="http://www.w3.org/2000/svg">
<path id="Vector" fill-rule="evenodd" clip-rule="evenodd" d="M4.88205 1.24514H3.05901C2.05217 1.24514 1.23596 2.0674 1.23596 3.08171C1.23596 4.09602 2.05217 4.91828 3.05901 4.91828H4.88205V1.24514ZM4.88205 0H6.11801H7.94106C9.63055 0 11 1.37972 11 3.08171C11 4.08609 10.5232 4.97825 9.78493 5.54085C10.5232 6.10347 11 6.99563 11 8.00001C11 9.70198 9.63055 11.0817 7.94106 11.0817C7.25795 11.0817 6.62714 10.8561 6.11801 10.4749V11.0817V12.9183C6.11801 14.6203 4.74844 16 3.05901 16C1.36956 16 0 14.6203 0 12.9183C0 11.9138 0.476933 11.0218 1.2151 10.4591C0.476933 9.89652 0 9.00437 0 8.00001C0 6.99563 0.476945 6.10347 1.21512 5.54086C0.476945 4.97825 0 4.08609 0 3.08171C0 1.37972 1.36956 0 3.05901 0H4.88205ZM6.11801 1.24514V4.91828H7.94106C8.94793 4.91828 9.76404 4.09602 9.76404 3.08171C9.76404 2.0674 8.94793 1.24514 7.94106 1.24514H6.11801ZM3.05901 9.83656H4.88205V8.00474V8.00001V7.99527V6.16343H3.05901C2.05217 6.16343 1.23596 6.98569 1.23596 8.00001C1.23596 9.01189 2.04826 9.83265 3.05178 9.83657L3.05901 9.83656ZM1.23596 12.9183C1.23596 11.9064 2.04826 11.0856 3.05178 11.0817L3.05901 11.0817H4.88205V12.9183C4.88205 13.9326 4.06585 14.7549 3.05901 14.7549C2.05217 14.7549 1.23596 13.9326 1.23596 12.9183ZM6.11801 7.99635C6.11998 6.98371 6.93543 6.16343 7.94106 6.16343C8.94793 6.16343 9.76404 6.98569 9.76404 8.00001C9.76404 9.01432 8.94793 9.83658 7.94106 9.83658C6.93543 9.83658 6.11998 9.0163 6.11801 8.00367V7.99635Z" fill="var(--fill-0, black)"/>
</svg>
