<svg preserveAspectRatio="none" width="100%" height="100%" overflow="visible" style="display: block;" viewBox="0 0 36.0631 8.02841" fill="none" xmlns="http://www.w3.org/2000/svg">
<g id="svg_title">
<path d="M33.8483 8.02841C33.4584 8.02841 33.1228 7.97727 32.8415 7.875C32.5624 7.77273 32.3344 7.63743 32.1576 7.46911C31.9807 7.30078 31.8486 7.11648 31.7613 6.91619L32.5827 6.57741C32.6402 6.67116 32.7169 6.77024 32.8128 6.87464C32.9108 6.98118 33.0429 7.07173 33.2091 7.14631C33.3774 7.22088 33.5937 7.25817 33.8579 7.25817C34.2201 7.25817 34.5194 7.16974 34.756 6.9929C34.9925 6.81818 35.1107 6.53906 35.1107 6.15554V5.19034H35.05C34.9925 5.29474 34.9094 5.41087 34.8007 5.53871C34.6942 5.66655 34.5471 5.77734 34.3596 5.87109C34.1721 5.96484 33.9282 6.01172 33.6278 6.01172C33.24 6.01172 32.8905 5.92117 32.5795 5.74006C32.2705 5.55682 32.0255 5.28729 31.8444 4.93146C31.6654 4.57351 31.5759 4.13352 31.5759 3.61151C31.5759 3.08949 31.6643 2.64205 31.8412 2.26918C32.0202 1.89631 32.2652 1.6108 32.5763 1.41264C32.8873 1.21236 33.24 1.11222 33.6341 1.11222C33.9388 1.11222 34.1849 1.16335 34.3724 1.26562C34.5599 1.36577 34.7059 1.48295 34.8103 1.61719C34.9168 1.75142 34.9988 1.86967 35.0564 1.97195H35.1267V1.17614H36.0631V6.19389C36.0631 6.61577 35.9651 6.962 35.7691 7.2326C35.5731 7.5032 35.3078 7.70348 34.9733 7.83345C34.6409 7.96342 34.2659 8.02841 33.8483 8.02841ZM33.8387 5.21911C34.1135 5.21911 34.3458 5.15518 34.5354 5.02734C34.7272 4.89737 34.8721 4.712 34.9701 4.47124C35.0702 4.22834 35.1203 3.9375 35.1203 3.59872C35.1203 3.26847 35.0713 2.97763 34.9733 2.72621C34.8753 2.47479 34.7314 2.27876 34.5418 2.13814C34.3522 1.99538 34.1178 1.92401 33.8387 1.92401C33.551 1.92401 33.3113 1.99858 33.1196 2.14773C32.9278 2.29474 32.7829 2.49503 32.6849 2.74858C32.589 3.00213 32.5411 3.28551 32.5411 3.59872C32.5411 3.92045 32.5901 4.20277 32.6881 4.44567C32.7861 4.68857 32.931 4.8782 33.1228 5.01456C33.3167 5.15092 33.5553 5.21911 33.8387 5.21911Z" fill="var(--fill-0, #6D6D6D)"/>
<path d="M28.0946 6.19389C27.7836 6.19389 27.5023 6.13636 27.2509 6.02131C26.9995 5.90412 26.8002 5.73473 26.6532 5.51314C26.5083 5.29155 26.4359 5.01989 26.4359 4.69815C26.4359 4.42116 26.4892 4.19318 26.5957 4.0142C26.7022 3.83523 26.8461 3.69354 27.0272 3.58913C27.2083 3.48473 27.4107 3.4059 27.6344 3.35263C27.8581 3.29936 28.0861 3.25888 28.3184 3.23118C28.6124 3.19709 28.851 3.16939 29.0343 3.14808C29.2175 3.12465 29.3507 3.08736 29.4338 3.03622C29.5169 2.98509 29.5584 2.90199 29.5584 2.78693V2.76456C29.5584 2.48544 29.4796 2.26918 29.3219 2.11577C29.1664 1.96236 28.9341 1.88565 28.6252 1.88565C28.3034 1.88565 28.0499 1.95703 27.8645 2.09979C27.6813 2.24041 27.5545 2.39702 27.4842 2.5696L26.5861 2.36506C26.6926 2.06676 26.8482 1.82599 27.0527 1.64276C27.2594 1.45739 27.497 1.32315 27.7654 1.24006C28.0339 1.15483 28.3162 1.11222 28.6124 1.11222C28.8084 1.11222 29.0162 1.13565 29.2356 1.18253C29.4572 1.22727 29.6639 1.31037 29.8556 1.43182C30.0495 1.55327 30.2083 1.72692 30.3319 1.95277C30.4554 2.17649 30.5172 2.46733 30.5172 2.82528V6.08523H29.584V5.41406H29.5456C29.4838 5.53764 29.3912 5.65909 29.2676 5.77841C29.144 5.89773 28.9853 5.9968 28.7914 6.07564C28.5975 6.15447 28.3652 6.19389 28.0946 6.19389ZM28.3024 5.42685C28.5666 5.42685 28.7924 5.37464 28.9799 5.27024C29.1696 5.16584 29.3134 5.02947 29.4114 4.86115C29.5115 4.6907 29.5616 4.50852 29.5616 4.31463V3.68182C29.5275 3.71591 29.4615 3.74787 29.3635 3.7777C29.2676 3.8054 29.1578 3.8299 29.0343 3.85121C28.9107 3.87038 28.7903 3.88849 28.6731 3.90554C28.5559 3.92045 28.4579 3.93324 28.3791 3.94389C28.1937 3.96733 28.0243 4.00675 27.8709 4.06215C27.7196 4.11754 27.5982 4.19744 27.5066 4.30185C27.4171 4.40412 27.3723 4.54048 27.3723 4.71094C27.3723 4.94744 27.4597 5.12642 27.6344 5.24787C27.8091 5.36719 28.0318 5.42685 28.3024 5.42685Z" fill="var(--fill-0, #6D6D6D)"/>
<path d="M25.6089 1.17614V1.94318H22.9275V1.17614H25.6089ZM23.6466 0H24.6022V4.64382C24.6022 4.82919 24.6299 4.96875 24.6853 5.0625C24.7407 5.15412 24.8121 5.21697 24.8994 5.25107C24.9889 5.28303 25.0858 5.29901 25.1903 5.29901C25.267 5.29901 25.3341 5.29368 25.3916 5.28303C25.4491 5.27237 25.4939 5.26385 25.5258 5.25746L25.6984 6.04688C25.643 6.06818 25.5642 6.08949 25.4619 6.1108C25.3596 6.13423 25.2318 6.14702 25.0784 6.14915C24.827 6.15341 24.5926 6.10866 24.3753 6.01491C24.1579 5.92116 23.9822 5.77628 23.8479 5.58026C23.7137 5.38423 23.6466 5.13814 23.6466 4.84197V0Z" fill="var(--fill-0, #6D6D6D)"/>
<path d="M22.6838 6.08523V6.89702H18.5257V6.08523H22.6838Z" fill="var(--fill-0, #6D6D6D)"/>
<path d="M15.7236 6.08523V1.17614H16.6473V1.95597H16.6984C16.7879 1.69176 16.9456 1.48402 17.1714 1.33274C17.3994 1.17933 17.6572 1.10263 17.9449 1.10263C18.0045 1.10263 18.0748 1.10476 18.1558 1.10902C18.2389 1.11328 18.3039 1.11861 18.3508 1.125V2.03906C18.3124 2.02841 18.2442 2.01669 18.1462 2.00391C18.0482 1.98899 17.9502 1.98153 17.8522 1.98153C17.6263 1.98153 17.425 2.02947 17.2481 2.12536C17.0734 2.21911 16.9349 2.35014 16.8327 2.51847C16.7304 2.68466 16.6792 2.87429 16.6792 3.08736V6.08523H15.7236Z" fill="var(--fill-0, #6D6D6D)"/>
<path d="M12.0282 6.19389C11.7172 6.19389 11.4359 6.13636 11.1845 6.02131C10.9331 5.90412 10.7338 5.73473 10.5868 5.51314C10.4419 5.29155 10.3695 5.01989 10.3695 4.69815C10.3695 4.42116 10.4228 4.19318 10.5293 4.0142C10.6358 3.83523 10.7797 3.69354 10.9608 3.58913C11.1419 3.48473 11.3443 3.4059 11.568 3.35263C11.7917 3.29936 12.0197 3.25888 12.252 3.23118C12.546 3.19709 12.7846 3.16939 12.9679 3.14808C13.1511 3.12465 13.2843 3.08736 13.3674 3.03622C13.4505 2.98509 13.492 2.90199 13.492 2.78693V2.76456C13.492 2.48544 13.4132 2.26918 13.2555 2.11577C13.1 1.96236 12.8677 1.88565 12.5588 1.88565C12.237 1.88565 11.9835 1.95703 11.7981 2.09979C11.6149 2.24041 11.4881 2.39702 11.4178 2.5696L10.5197 2.36506C10.6262 2.06676 10.7818 1.82599 10.9863 1.64276C11.193 1.45739 11.4306 1.32315 11.699 1.24006C11.9675 1.15483 12.2498 1.11222 12.546 1.11222C12.742 1.11222 12.9498 1.13565 13.1692 1.18253C13.3908 1.22727 13.5975 1.31037 13.7892 1.43182C13.9831 1.55327 14.1419 1.72692 14.2654 1.95277C14.389 2.17649 14.4508 2.46733 14.4508 2.82528V6.08523H13.5176V5.41406H13.4792C13.4174 5.53764 13.3248 5.65909 13.2012 5.77841C13.0776 5.89773 12.9189 5.9968 12.725 6.07564C12.5311 6.15447 12.2988 6.19389 12.0282 6.19389ZM12.236 5.42685C12.5002 5.42685 12.726 5.37464 12.9135 5.27024C13.1032 5.16584 13.247 5.02947 13.345 4.86115C13.4451 4.6907 13.4952 4.50852 13.4952 4.31463V3.68182C13.4611 3.71591 13.3951 3.74787 13.2971 3.7777C13.2012 3.8054 13.0914 3.8299 12.9679 3.85121C12.8443 3.87038 12.7239 3.88849 12.6067 3.90554C12.4895 3.92045 12.3915 3.93324 12.3127 3.94389C12.1273 3.96733 11.9579 4.00675 11.8045 4.06215C11.6532 4.11754 11.5318 4.19744 11.4402 4.30185C11.3507 4.40412 11.3059 4.54048 11.3059 4.71094C11.3059 4.94744 11.3933 5.12642 11.568 5.24787C11.7427 5.36719 11.9654 5.42685 12.236 5.42685Z" fill="var(--fill-0, #6D6D6D)"/>
<path d="M7.43315 6.1843C6.94949 6.1843 6.53294 6.08097 6.18351 5.87429C5.8362 5.66548 5.56774 5.37251 5.37811 4.99538C5.19061 4.61612 5.09686 4.17188 5.09686 3.66264C5.09686 3.1598 5.19061 2.71662 5.37811 2.3331C5.56774 1.94957 5.83194 1.65021 6.17072 1.43501C6.51163 1.21982 6.91007 1.11222 7.36603 1.11222C7.64302 1.11222 7.91149 1.15803 8.17143 1.24965C8.43137 1.34126 8.66468 1.48509 8.87136 1.68111C9.07804 1.87713 9.24103 2.13175 9.36035 2.44496C9.47967 2.75604 9.53933 3.13423 9.53933 3.57955V3.91832H5.63698V3.20241H8.60289C8.60289 2.95099 8.55176 2.72834 8.44948 2.53445C8.34721 2.33842 8.20339 2.18395 8.01802 2.07102C7.83478 1.9581 7.61958 1.90163 7.37243 1.90163C7.10396 1.90163 6.86958 1.96769 6.6693 2.09979C6.47115 2.22976 6.31774 2.40021 6.20907 2.61115C6.10254 2.81996 6.04927 3.04687 6.04927 3.2919V3.85121C6.04927 4.17933 6.1068 4.45845 6.22186 4.68857C6.33904 4.91868 6.50204 5.09446 6.71085 5.21591C6.91966 5.33523 7.16362 5.39489 7.44274 5.39489C7.62385 5.39489 7.78897 5.36932 7.93812 5.31818C8.08727 5.26492 8.21618 5.18608 8.32484 5.08168C8.43351 4.97727 8.5166 4.84837 8.57413 4.69496L9.4786 4.85795C9.40616 5.12429 9.27619 5.3576 9.08869 5.55788C8.90332 5.75604 8.67001 5.91051 8.38876 6.02131C8.10964 6.12997 7.7911 6.1843 7.43315 6.1843Z" fill="var(--fill-0, #6D6D6D)"/>
<path d="M0.990767 7.92614C0.848011 7.92614 0.71804 7.91442 0.600852 7.89098C0.483665 7.86967 0.396307 7.84624 0.338778 7.82067L0.568892 7.03764C0.743608 7.08452 0.899148 7.10476 1.03551 7.09837C1.17187 7.09197 1.29226 7.04084 1.39666 6.94496C1.5032 6.84908 1.59695 6.69247 1.67791 6.47514L1.79616 6.14915L0 1.17614H1.02273L2.26598 4.9858H2.31712L3.56037 1.17614H4.58629L2.56321 6.74041C2.46946 6.99609 2.35014 7.21236 2.20526 7.3892C2.06037 7.56818 1.88778 7.70242 1.6875 7.7919C1.48722 7.88139 1.25497 7.92614 0.990767 7.92614Z" fill="var(--fill-0, #6D6D6D)"/>
</g>
</svg>
