<svg preserveAspectRatio="none" width="100%" height="100%" overflow="visible" style="display: block;" viewBox="0 0 526 301" fill="none" xmlns="http://www.w3.org/2000/svg">
<g id="bg_vector">
<path d="M2.62268e-05 0H1.00003V301H2.62268e-05V0Z" fill="url(#paint0_radial_0_5)" fill-opacity="0.32"/>
<path d="M25 0H26V301H25V0Z" fill="url(#paint1_radial_0_5)" fill-opacity="0.32"/>
<path d="M50 0H51V301H50V0Z" fill="url(#paint2_radial_0_5)" fill-opacity="0.32"/>
<path d="M75 0H76V301H75V0Z" fill="url(#paint3_radial_0_5)" fill-opacity="0.32"/>
<path d="M100 0H101V301H100V0Z" fill="url(#paint4_radial_0_5)" fill-opacity="0.32"/>
<path d="M125 0H126V301H125V0Z" fill="url(#paint5_radial_0_5)" fill-opacity="0.32"/>
<path d="M150 0H151V301H150V0Z" fill="url(#paint6_radial_0_5)" fill-opacity="0.32"/>
<path d="M175 0H176V301H175V0Z" fill="url(#paint7_radial_0_5)" fill-opacity="0.32"/>
<path d="M200 0H201V301H200V0Z" fill="url(#paint8_radial_0_5)" fill-opacity="0.32"/>
<path d="M225 0H226V301H225V0Z" fill="url(#paint9_radial_0_5)" fill-opacity="0.32"/>
<path d="M250 0H251V301H250V0Z" fill="url(#paint10_radial_0_5)" fill-opacity="0.32"/>
<path d="M275 0H276V301H275V0Z" fill="url(#paint11_radial_0_5)" fill-opacity="0.32"/>
<path d="M300 0H301V301H300V0Z" fill="url(#paint12_radial_0_5)" fill-opacity="0.32"/>
<path d="M325 0H326V301H325V0Z" fill="url(#paint13_radial_0_5)" fill-opacity="0.32"/>
<path d="M350 0H351V301H350V0Z" fill="url(#paint14_radial_0_5)" fill-opacity="0.32"/>
<path d="M375 0H376V301H375V0Z" fill="url(#paint15_radial_0_5)" fill-opacity="0.32"/>
<path d="M400 0H401V301H400V0Z" fill="url(#paint16_radial_0_5)" fill-opacity="0.32"/>
<path d="M425 0H426V301H425V0Z" fill="url(#paint17_radial_0_5)" fill-opacity="0.32"/>
<path d="M450 0H451V301H450V0Z" fill="url(#paint18_radial_0_5)" fill-opacity="0.32"/>
<path d="M475 0H476V301H475V0Z" fill="url(#paint19_radial_0_5)" fill-opacity="0.32"/>
<path d="M500 0H501V301H500V0Z" fill="url(#paint20_radial_0_5)" fill-opacity="0.32"/>
<path d="M525 0H526V301H525V0Z" fill="url(#paint21_radial_0_5)" fill-opacity="0.32"/>
<path d="M526 0V1.00003L1.30697e-05 1.00001L2.62268e-05 0H526Z" fill="url(#paint22_radial_0_5)" fill-opacity="0.32"/>
<path d="M526 25V26L1.19769e-05 26L1.20206e-05 25L526 25Z" fill="url(#paint23_radial_0_5)" fill-opacity="0.32"/>
<path d="M526 50V51L1.08841e-05 51L1.09278e-05 50L526 50Z" fill="url(#paint24_radial_0_5)" fill-opacity="0.32"/>
<path d="M526 75V76L9.79135e-06 76L9.83506e-06 75L526 75Z" fill="url(#paint25_radial_0_5)" fill-opacity="0.32"/>
<path d="M526 100V101L8.69857e-06 101L8.74228e-06 100L526 100Z" fill="url(#paint26_radial_0_5)" fill-opacity="0.32"/>
<path d="M526 125V126L7.60578e-06 126L7.64949e-06 125L526 125Z" fill="url(#paint27_radial_0_5)" fill-opacity="0.32"/>
<path d="M526 150V151L6.513e-06 151L6.55671e-06 150L526 150Z" fill="url(#paint28_radial_0_5)" fill-opacity="0.32"/>
<path d="M526 175V176L5.42021e-06 176L5.46392e-06 175L526 175Z" fill="url(#paint29_radial_0_5)" fill-opacity="0.32"/>
<path d="M526 200V201L4.32743e-06 201L4.37114e-06 200L526 200Z" fill="url(#paint30_radial_0_5)" fill-opacity="0.32"/>
<path d="M526 225V226L3.23464e-06 226L3.27835e-06 225L526 225Z" fill="url(#paint31_radial_0_5)" fill-opacity="0.32"/>
<path d="M526 250V251L2.14186e-06 251L2.18557e-06 250L526 250Z" fill="url(#paint32_radial_0_5)" fill-opacity="0.32"/>
<path d="M526 275V276L1.04907e-06 276L1.09279e-06 275L526 275Z" fill="url(#paint33_radial_0_5)" fill-opacity="0.32"/>
<path d="M526 300V301H2.62268e-05L0 300L526 300Z" fill="url(#paint34_radial_0_5)" fill-opacity="0.32"/>
</g>
<defs>
<radialGradient id="paint0_radial_0_5" cx="0" cy="0" r="1" gradientUnits="userSpaceOnUse" gradientTransform="translate(293 124) rotate(-179.316) scale(335.024 92.7012)">
<stop offset="0.289936" stop-color="#D9D9D9"/>
<stop offset="1" stop-color="#737373" stop-opacity="0"/>
</radialGradient>
<radialGradient id="paint1_radial_0_5" cx="0" cy="0" r="1" gradientUnits="userSpaceOnUse" gradientTransform="translate(293 124) rotate(-179.316) scale(335.024 92.7012)">
<stop offset="0.289936" stop-color="#D9D9D9"/>
<stop offset="1" stop-color="#737373" stop-opacity="0"/>
</radialGradient>
<radialGradient id="paint2_radial_0_5" cx="0" cy="0" r="1" gradientUnits="userSpaceOnUse" gradientTransform="translate(293 124) rotate(-179.316) scale(335.024 92.7012)">
<stop offset="0.289936" stop-color="#D9D9D9"/>
<stop offset="1" stop-color="#737373" stop-opacity="0"/>
</radialGradient>
<radialGradient id="paint3_radial_0_5" cx="0" cy="0" r="1" gradientUnits="userSpaceOnUse" gradientTransform="translate(293 124) rotate(-179.316) scale(335.024 92.7012)">
<stop offset="0.289936" stop-color="#D9D9D9"/>
<stop offset="1" stop-color="#737373" stop-opacity="0"/>
</radialGradient>
<radialGradient id="paint4_radial_0_5" cx="0" cy="0" r="1" gradientUnits="userSpaceOnUse" gradientTransform="translate(293 124) rotate(-179.316) scale(335.024 92.7012)">
<stop offset="0.289936" stop-color="#D9D9D9"/>
<stop offset="1" stop-color="#737373" stop-opacity="0"/>
</radialGradient>
<radialGradient id="paint5_radial_0_5" cx="0" cy="0" r="1" gradientUnits="userSpaceOnUse" gradientTransform="translate(293 124) rotate(-179.316) scale(335.024 92.7012)">
<stop offset="0.289936" stop-color="#D9D9D9"/>
<stop offset="1" stop-color="#737373" stop-opacity="0"/>
</radialGradient>
<radialGradient id="paint6_radial_0_5" cx="0" cy="0" r="1" gradientUnits="userSpaceOnUse" gradientTransform="translate(293 124) rotate(-179.316) scale(335.024 92.7012)">
<stop offset="0.289936" stop-color="#D9D9D9"/>
<stop offset="1" stop-color="#737373" stop-opacity="0"/>
</radialGradient>
<radialGradient id="paint7_radial_0_5" cx="0" cy="0" r="1" gradientUnits="userSpaceOnUse" gradientTransform="translate(293 124) rotate(-179.316) scale(335.024 92.7012)">
<stop offset="0.289936" stop-color="#D9D9D9"/>
<stop offset="1" stop-color="#737373" stop-opacity="0"/>
</radialGradient>
<radialGradient id="paint8_radial_0_5" cx="0" cy="0" r="1" gradientUnits="userSpaceOnUse" gradientTransform="translate(293 124) rotate(-179.316) scale(335.024 92.7012)">
<stop offset="0.289936" stop-color="#D9D9D9"/>
<stop offset="1" stop-color="#737373" stop-opacity="0"/>
</radialGradient>
<radialGradient id="paint9_radial_0_5" cx="0" cy="0" r="1" gradientUnits="userSpaceOnUse" gradientTransform="translate(293 124) rotate(-179.316) scale(335.024 92.7012)">
<stop offset="0.289936" stop-color="#D9D9D9"/>
<stop offset="1" stop-color="#737373" stop-opacity="0"/>
</radialGradient>
<radialGradient id="paint10_radial_0_5" cx="0" cy="0" r="1" gradientUnits="userSpaceOnUse" gradientTransform="translate(293 124) rotate(-179.316) scale(335.024 92.7012)">
<stop offset="0.289936" stop-color="#D9D9D9"/>
<stop offset="1" stop-color="#737373" stop-opacity="0"/>
</radialGradient>
<radialGradient id="paint11_radial_0_5" cx="0" cy="0" r="1" gradientUnits="userSpaceOnUse" gradientTransform="translate(293 124) rotate(-179.316) scale(335.024 92.7012)">
<stop offset="0.289936" stop-color="#D9D9D9"/>
<stop offset="1" stop-color="#737373" stop-opacity="0"/>
</radialGradient>
<radialGradient id="paint12_radial_0_5" cx="0" cy="0" r="1" gradientUnits="userSpaceOnUse" gradientTransform="translate(293 124) rotate(-179.316) scale(335.024 92.7012)">
<stop offset="0.289936" stop-color="#D9D9D9"/>
<stop offset="1" stop-color="#737373" stop-opacity="0"/>
</radialGradient>
<radialGradient id="paint13_radial_0_5" cx="0" cy="0" r="1" gradientUnits="userSpaceOnUse" gradientTransform="translate(293 124) rotate(-179.316) scale(335.024 92.7012)">
<stop offset="0.289936" stop-color="#D9D9D9"/>
<stop offset="1" stop-color="#737373" stop-opacity="0"/>
</radialGradient>
<radialGradient id="paint14_radial_0_5" cx="0" cy="0" r="1" gradientUnits="userSpaceOnUse" gradientTransform="translate(293 124) rotate(-179.316) scale(335.024 92.7012)">
<stop offset="0.289936" stop-color="#D9D9D9"/>
<stop offset="1" stop-color="#737373" stop-opacity="0"/>
</radialGradient>
<radialGradient id="paint15_radial_0_5" cx="0" cy="0" r="1" gradientUnits="userSpaceOnUse" gradientTransform="translate(293 124) rotate(-179.316) scale(335.024 92.7012)">
<stop offset="0.289936" stop-color="#D9D9D9"/>
<stop offset="1" stop-color="#737373" stop-opacity="0"/>
</radialGradient>
<radialGradient id="paint16_radial_0_5" cx="0" cy="0" r="1" gradientUnits="userSpaceOnUse" gradientTransform="translate(293 124) rotate(-179.316) scale(335.024 92.7012)">
<stop offset="0.289936" stop-color="#D9D9D9"/>
<stop offset="1" stop-color="#737373" stop-opacity="0"/>
</radialGradient>
<radialGradient id="paint17_radial_0_5" cx="0" cy="0" r="1" gradientUnits="userSpaceOnUse" gradientTransform="translate(293 124) rotate(-179.316) scale(335.024 92.7012)">
<stop offset="0.289936" stop-color="#D9D9D9"/>
<stop offset="1" stop-color="#737373" stop-opacity="0"/>
</radialGradient>
<radialGradient id="paint18_radial_0_5" cx="0" cy="0" r="1" gradientUnits="userSpaceOnUse" gradientTransform="translate(293 124) rotate(-179.316) scale(335.024 92.7012)">
<stop offset="0.289936" stop-color="#D9D9D9"/>
<stop offset="1" stop-color="#737373" stop-opacity="0"/>
</radialGradient>
<radialGradient id="paint19_radial_0_5" cx="0" cy="0" r="1" gradientUnits="userSpaceOnUse" gradientTransform="translate(293 124) rotate(-179.316) scale(335.024 92.7012)">
<stop offset="0.289936" stop-color="#D9D9D9"/>
<stop offset="1" stop-color="#737373" stop-opacity="0"/>
</radialGradient>
<radialGradient id="paint20_radial_0_5" cx="0" cy="0" r="1" gradientUnits="userSpaceOnUse" gradientTransform="translate(293 124) rotate(-179.316) scale(335.024 92.7012)">
<stop offset="0.289936" stop-color="#D9D9D9"/>
<stop offset="1" stop-color="#737373" stop-opacity="0"/>
</radialGradient>
<radialGradient id="paint21_radial_0_5" cx="0" cy="0" r="1" gradientUnits="userSpaceOnUse" gradientTransform="translate(293 124) rotate(-179.316) scale(335.024 92.7012)">
<stop offset="0.289936" stop-color="#D9D9D9"/>
<stop offset="1" stop-color="#737373" stop-opacity="0"/>
</radialGradient>
<radialGradient id="paint22_radial_0_5" cx="0" cy="0" r="1" gradientUnits="userSpaceOnUse" gradientTransform="translate(293 124) rotate(-179.316) scale(335.024 92.7012)">
<stop offset="0.289936" stop-color="#D9D9D9"/>
<stop offset="1" stop-color="#737373" stop-opacity="0"/>
</radialGradient>
<radialGradient id="paint23_radial_0_5" cx="0" cy="0" r="1" gradientUnits="userSpaceOnUse" gradientTransform="translate(293 124) rotate(-179.316) scale(335.024 92.7012)">
<stop offset="0.289936" stop-color="#D9D9D9"/>
<stop offset="1" stop-color="#737373" stop-opacity="0"/>
</radialGradient>
<radialGradient id="paint24_radial_0_5" cx="0" cy="0" r="1" gradientUnits="userSpaceOnUse" gradientTransform="translate(293 124) rotate(-179.316) scale(335.024 92.7012)">
<stop offset="0.289936" stop-color="#D9D9D9"/>
<stop offset="1" stop-color="#737373" stop-opacity="0"/>
</radialGradient>
<radialGradient id="paint25_radial_0_5" cx="0" cy="0" r="1" gradientUnits="userSpaceOnUse" gradientTransform="translate(293 124) rotate(-179.316) scale(335.024 92.7012)">
<stop offset="0.289936" stop-color="#D9D9D9"/>
<stop offset="1" stop-color="#737373" stop-opacity="0"/>
</radialGradient>
<radialGradient id="paint26_radial_0_5" cx="0" cy="0" r="1" gradientUnits="userSpaceOnUse" gradientTransform="translate(293 124) rotate(-179.316) scale(335.024 92.7012)">
<stop offset="0.289936" stop-color="#D9D9D9"/>
<stop offset="1" stop-color="#737373" stop-opacity="0"/>
</radialGradient>
<radialGradient id="paint27_radial_0_5" cx="0" cy="0" r="1" gradientUnits="userSpaceOnUse" gradientTransform="translate(293 124) rotate(-179.316) scale(335.024 92.7012)">
<stop offset="0.289936" stop-color="#D9D9D9"/>
<stop offset="1" stop-color="#737373" stop-opacity="0"/>
</radialGradient>
<radialGradient id="paint28_radial_0_5" cx="0" cy="0" r="1" gradientUnits="userSpaceOnUse" gradientTransform="translate(293 124) rotate(-179.316) scale(335.024 92.7012)">
<stop offset="0.289936" stop-color="#D9D9D9"/>
<stop offset="1" stop-color="#737373" stop-opacity="0"/>
</radialGradient>
<radialGradient id="paint29_radial_0_5" cx="0" cy="0" r="1" gradientUnits="userSpaceOnUse" gradientTransform="translate(293 124) rotate(-179.316) scale(335.024 92.7012)">
<stop offset="0.289936" stop-color="#D9D9D9"/>
<stop offset="1" stop-color="#737373" stop-opacity="0"/>
</radialGradient>
<radialGradient id="paint30_radial_0_5" cx="0" cy="0" r="1" gradientUnits="userSpaceOnUse" gradientTransform="translate(293 124) rotate(-179.316) scale(335.024 92.7012)">
<stop offset="0.289936" stop-color="#D9D9D9"/>
<stop offset="1" stop-color="#737373" stop-opacity="0"/>
</radialGradient>
<radialGradient id="paint31_radial_0_5" cx="0" cy="0" r="1" gradientUnits="userSpaceOnUse" gradientTransform="translate(293 124) rotate(-179.316) scale(335.024 92.7012)">
<stop offset="0.289936" stop-color="#D9D9D9"/>
<stop offset="1" stop-color="#737373" stop-opacity="0"/>
</radialGradient>
<radialGradient id="paint32_radial_0_5" cx="0" cy="0" r="1" gradientUnits="userSpaceOnUse" gradientTransform="translate(293 124) rotate(-179.316) scale(335.024 92.7012)">
<stop offset="0.289936" stop-color="#D9D9D9"/>
<stop offset="1" stop-color="#737373" stop-opacity="0"/>
</radialGradient>
<radialGradient id="paint33_radial_0_5" cx="0" cy="0" r="1" gradientUnits="userSpaceOnUse" gradientTransform="translate(293 124) rotate(-179.316) scale(335.024 92.7012)">
<stop offset="0.289936" stop-color="#D9D9D9"/>
<stop offset="1" stop-color="#737373" stop-opacity="0"/>
</radialGradient>
<radialGradient id="paint34_radial_0_5" cx="0" cy="0" r="1" gradientUnits="userSpaceOnUse" gradientTransform="translate(293 124) rotate(-179.316) scale(335.024 92.7012)">
<stop offset="0.289936" stop-color="#D9D9D9"/>
<stop offset="1" stop-color="#737373" stop-opacity="0"/>
</radialGradient>
</defs>
</svg>
