<svg width="1825" height="302" viewBox="0 0 1825 302" fill="none" xmlns="http://www.w3.org/2000/svg">
<g clip-path="url(#clip0_154_997)">
<path d="M-488.842 -158.25L2313.84 -158.25M-488.842 -116.503H2313.84M-488.842 -74.7559H2313.84M-488.842 -33.0088H2313.84M-488.842 8.73827H2313.84M-488.842 50.4853H2313.84M-488.842 92.2324H2313.84M-488.842 133.979H2313.84M-488.842 175.727H2313.84M-488.842 217.474H2313.84M-488.842 259.221H2313.84M0.250366 -79V301M49.5726 -79L49.5726 301M98.8989 -79V301M148.221 -79L148.221 301M197.547 -79L197.547 301M246.871 -79L246.871 301M296.196 -79L296.196 301M345.52 -79L345.52 301M394.844 -79L394.844 301M444.168 -79L444.168 301M493.496 -79L493.496 301M542.819 -79V301M592.145 -79V301M641.467 -79V301M690.793 -79V301M740.116 -79V301M789.44 -79V301M838.764 -79V301M888.088 -79V301M937.412 -79V301M986.737 -79V301M1036.06 -79V301M1085.38 -79V301M1134.71 -79V301M1184.04 -79V301M1233.36 -79V301M1282.68 -79V301M1332.01 -79V301M1381.33 -79V301M1430.66 -79V301M1479.98 -79V301M1529.31 -79V301M1578.63 -79V301M1627.95 -79V301M1677.28 -79V301M1726.6 -79V301M1775.93 -79V301M1825.25 -79V301" stroke="white" stroke-opacity="0.16" stroke-width="0.5" stroke-dasharray="2 2"/>
</g>
<defs>
<clipPath id="clip0_154_997">
<rect width="1825" height="302" fill="white"/>
</clipPath>
</defs>
</svg>
