<svg preserveAspectRatio="none" width="100%" height="100%" overflow="visible" style="display: block;" viewBox="0 0 122 49" fill="none" xmlns="http://www.w3.org/2000/svg">
<g id="union_logo">
<rect width="122" height="49" rx="24" fill="var(--fill-0, #232323)"/>
<g id="Vector">
<path d="M56.5458 17.5552C60.6507 17.5552 63.4148 20.5866 63.4148 25.1128C63.4148 29.639 60.6507 32.6703 56.5458 32.6703C52.8741 32.6703 50.2131 30.1788 49.7385 26.3585H47.9234V32.4212H44.7674V17.8044H47.9234V23.5141H49.7799C50.3575 19.8806 52.9359 17.5552 56.5458 17.5552ZM56.5458 29.8259C58.8974 29.8259 60.197 27.8326 60.197 25.1128C60.197 22.3929 58.8974 20.3997 56.5458 20.3997C54.1943 20.3997 52.8741 22.3929 52.8741 25.1128C52.8741 27.8326 54.1943 29.8259 56.5458 29.8259Z" fill="var(--fill-0, #7A7975)"/>
<path d="M71.7389 25.6111V21.687H74.7506V32.4212H71.7389V28.2271H67.9639V32.4212H64.9522V21.687H67.9639V25.6111H71.7389Z" fill="var(--fill-0, #7A7975)"/>
<path d="M79.672 27.9157L83.7977 21.687H86.6443V32.4212H83.6945V26.1509L79.5689 32.4212H76.7223V21.687H79.672V27.9157Z" fill="var(--fill-0, #7A7975)"/>
<path d="M93.4395 21.4378C96.5956 21.4378 98.8028 23.6802 98.8028 27.0644C98.8028 30.4487 96.5956 32.6703 93.4395 32.6703C90.2628 32.6703 88.0556 30.4487 88.0556 27.0644C88.0556 23.6802 90.2628 21.4378 93.4395 21.4378ZM93.4395 30.0543C94.9041 30.0543 95.7911 28.8085 95.7911 27.0644C95.7911 25.2996 94.9041 24.0539 93.4395 24.0539C91.9543 24.0539 91.0673 25.2996 91.0673 27.0644C91.0673 28.8085 91.9543 30.0543 93.4395 30.0543Z" fill="var(--fill-0, #7A7975)"/>
<path d="M106.988 25.6111V21.687H110V32.4212H106.988V28.2271H103.213V32.4212H100.202V21.687H103.213V25.6111H106.988Z" fill="var(--fill-0, #7A7975)"/>
<path d="M20.1083 27.9647C20.4262 27.7799 20.4262 27.318 20.1083 27.1332L12.7154 22.8371C12.3975 22.6523 12 22.8833 12 23.2528V30.0285C12 30.5436 12.2732 31.0194 12.7166 31.2765L12.8489 31.3532C13.2914 31.6097 13.8363 31.6095 14.2786 31.3525L20.1083 27.9647Z" fill="var(--fill-0, #7A7975)"/>
<path d="M27.3815 34.6639C27.0635 34.8482 26.6665 34.6173 26.6665 34.248V25.6781C26.6665 25.3085 27.0639 25.0775 27.3819 25.2623L33.2246 28.6577C33.6674 28.9149 33.9401 29.3903 33.9401 29.9049V30.0285C33.9401 30.5436 33.6668 31.0194 33.2235 31.2765L27.3815 34.6639Z" fill="var(--fill-0, #7A7975)"/>
<path d="M22.2558 12.1923C22.6979 11.9359 23.2422 11.9359 23.6843 12.1923L29.511 15.5708C29.8293 15.7554 29.8295 16.2177 29.5114 16.4026L22.1354 20.6889C21.8174 20.8737 21.4199 20.6427 21.4199 20.2732V13.5094C21.4199 12.9943 21.6932 12.5185 22.1365 12.2614L22.2558 12.1923Z" fill="var(--fill-0, #7A7975)"/>
<path d="M18.5582 23.738C18.8761 23.9228 19.2736 23.6918 19.2736 23.3222V14.7522C19.2736 14.3828 18.8765 14.1518 18.5586 14.3362L12.7166 17.7236C12.2732 17.9807 12 18.4565 12 18.9716V19.0954C12 19.6099 12.2727 20.0854 12.7154 20.3427L18.5582 23.738Z" fill="var(--fill-0, #7A7975)"/>
<path d="M33.2235 17.7236C33.6668 17.9807 33.9401 18.4565 33.9401 18.9716V25.7475C33.9401 26.117 33.5426 26.348 33.2246 26.1632L25.8317 21.867C25.5137 21.6823 25.5137 21.2203 25.8317 21.0355L31.6617 17.6477C32.104 17.3906 32.6488 17.3904 33.0913 17.647L33.2235 17.7236Z" fill="var(--fill-0, #7A7975)"/>
<path d="M24.5202 28.727C24.5202 28.3575 24.1227 28.1264 23.8047 28.3113L16.4288 32.5975C16.1106 32.7825 16.1109 33.2446 16.4292 33.4293L22.2558 36.8077C22.6979 37.0641 23.2422 37.0641 23.6843 36.8077L23.8035 36.7386C24.2469 36.4816 24.5202 36.0057 24.5202 35.4907V28.727Z" fill="var(--fill-0, #7A7975)"/>
</g>
</g>
</svg>
