<svg preserveAspectRatio="none" width="100%" height="100%" overflow="visible" style="display: block;" viewBox="0 0 99.8261 57" fill="none" xmlns="http://www.w3.org/2000/svg">
<g id="Frame 3">
<rect width="99.8261" height="57" rx="24" fill="var(--fill-0, #232323)"/>
<g id="151eye">
<path d="M42.3637 33.9045H41.2985V24.5682L39.3307 26.2966V25.0852L41.2985 23.3864H42.3637V33.9045Z" fill="white" fill-opacity="0.2"/>
<path d="M50.3393 30.433C50.3393 31.0633 50.2851 31.6 50.1766 32.0432C50.0681 32.4864 49.8413 32.8803 49.496 33.225C48.9733 33.747 48.2729 34.008 47.3951 34.008C46.4877 34.008 45.7825 33.7568 45.2794 33.2545C44.8454 32.8114 44.5988 32.2008 44.5397 31.4227H45.6049C45.743 32.5159 46.3397 33.0625 47.3951 33.0625C47.9376 33.0625 48.3716 32.9 48.697 32.575C49.0818 32.1909 49.2741 31.4769 49.2741 30.433C49.2741 30.0686 49.2494 29.7534 49.2001 29.4875C49.1607 29.2117 49.0818 28.9458 48.9634 28.6898C48.8451 28.4239 48.6626 28.222 48.416 28.0841C48.1694 27.9462 47.8637 27.8773 47.4987 27.8773C47.0449 27.8773 46.6652 27.9708 46.3595 28.158C46.0636 28.3451 45.8614 28.5962 45.7529 28.9114H44.7912V23.3864H50.1174V24.3318H45.7529V27.6705C46.1869 27.1879 46.8181 26.9466 47.6467 26.9466C48.416 26.9466 49.0225 27.1682 49.4664 27.6114C50.0484 28.1924 50.3393 29.133 50.3393 30.433Z" fill="white" fill-opacity="0.2"/>
<path d="M54.7403 34.008H53.675V24.6716L51.7073 26.4V25.1886L53.675 23.4898H54.7403V34.008Z" fill="white" fill-opacity="0.2"/>
<path d="M65.7545 34.008H58.8157V23.4898H65.7545V25.3216H60.8722V27.7886H65.0296V29.6205H60.8722V32.1761H65.7545V34.008Z" fill="white" fill-opacity="0.2"/>
<path d="M75.405 23.4898L72.2388 29.6943V34.008H70.1971V29.6943L67.031 23.4898H69.265L71.2328 27.7295L73.1709 23.4898H75.405Z" fill="white" fill-opacity="0.2"/>
<path d="M83.8261 34.008H76.8872V23.4898H83.8261V25.3216H78.9437V27.7886H83.1011V29.6205H78.9437V32.1761H83.8261V34.008Z" fill="white" fill-opacity="0.2"/>
<path d="M27.3811 28.5C27.3811 29.7552 26.362 30.7727 25.1049 30.7727C23.8479 30.7727 22.8288 29.7552 22.8288 28.5C22.8288 27.2448 23.8479 26.2273 25.1049 26.2273C26.362 26.2273 27.3811 27.2448 27.3811 28.5Z" fill="var(--fill-0, #4F4F4F)"/>
<path fill-rule="evenodd" clip-rule="evenodd" d="M31.0196 28.5C29.8389 30.538 27.6321 31.9091 25.1046 31.9091C22.5771 31.9091 20.3703 30.538 19.1897 28.5C20.3703 26.462 22.5771 25.0909 25.1046 25.0909C27.6321 25.0909 29.8389 26.462 31.0196 28.5ZM18.3179 31.151C18.4239 30.1936 18.7285 29.2959 19.1897 28.5C18.7285 27.7041 18.4239 26.8064 18.3179 25.849C19.985 23.9888 22.4079 22.8182 25.1046 22.8182C27.8013 22.8182 30.2242 23.9889 31.8913 25.849C31.9189 25.6001 31.9331 25.3472 31.9331 25.0909C31.9331 21.3253 28.8759 18.2727 25.1046 18.2727C21.3334 18.2727 18.2761 21.3253 18.2761 25.0909C18.2761 25.3471 18.2903 25.6001 18.3179 25.849C17.6229 26.6244 17.0592 27.5197 16.6618 28.5C16.235 27.4472 16 26.2965 16 25.0909C16 20.0701 20.0763 16 25.1046 16C30.133 16 34.2092 20.0701 34.2092 25.0909C34.2092 26.2965 33.9742 27.4472 33.5474 28.5C33.9742 29.5528 34.2092 30.7035 34.2092 31.9091C34.2092 36.9298 30.133 41 25.1046 41C20.0763 41 16 36.9298 16 31.9091C16 30.7035 16.235 29.5528 16.6618 28.5C17.0592 29.4803 17.6229 30.3756 18.3179 31.151ZM18.3179 31.151C19.985 33.0112 22.4079 34.1818 25.1046 34.1818C27.8013 34.1818 30.2242 33.0111 31.8913 31.151C31.9189 31.3999 31.9331 31.6528 31.9331 31.9091C31.9331 35.6747 28.8759 38.7273 25.1046 38.7273C21.3334 38.7273 18.2761 35.6747 18.2761 31.9091C18.2761 31.6529 18.2903 31.3999 18.3179 31.151Z" fill="var(--fill-0, #4F4F4F)"/>
<path d="M18.3179 31.151C18.4239 30.1936 18.7285 29.2959 19.1897 28.5C18.7285 27.7041 18.4239 26.8064 18.3179 25.849C17.6229 26.6244 17.0592 27.5197 16.6618 28.5C17.0592 29.4803 17.6229 30.3756 18.3179 31.151Z" fill="var(--fill-0, #4F4F4F)"/>
</g>
</g>
</svg>
