<svg preserveAspectRatio="none" width="100%" height="100%" overflow="visible" style="display: block;" viewBox="0 0 225.985 56" fill="none" xmlns="http://www.w3.org/2000/svg">
<g id="Frame 3">
<rect width="225.985" height="56" rx="24" fill="var(--fill-0, #232323)"/>
<g id="logo_monop">
<path d="M122.547 34.6581C120.993 34.6581 119.589 34.3887 118.333 33.8486C117.077 33.3084 116.089 32.5644 115.367 31.6136C114.646 30.6628 114.285 29.5974 114.285 28.4174C114.285 27.2374 114.64 26.172 115.346 25.2212C116.053 24.2718 117.038 23.5263 118.302 22.9862C119.563 22.446 120.979 22.1767 122.547 22.1767C124.115 22.1767 125.526 22.446 126.782 22.9862C128.038 23.5263 129.018 24.2703 129.727 25.2212C130.433 26.172 130.787 27.2374 130.787 28.4174C130.787 29.5974 130.433 30.6643 129.727 31.6136C129.02 32.5644 128.038 33.3084 126.782 33.8486C125.526 34.3887 124.114 34.6581 122.547 34.6581ZM122.547 33.1403C123.324 33.1403 124.001 32.9528 124.577 32.5793C125.152 32.2043 125.593 31.6612 125.898 30.9485C126.203 30.2357 126.356 29.392 126.356 28.4174C126.356 27.4427 126.203 26.599 125.898 25.8863C125.593 25.1735 125.152 24.6304 124.577 24.2554C124.001 23.8805 123.324 23.6945 122.547 23.6945C121.77 23.6945 121.093 23.8879 120.517 24.2733C119.941 24.6602 119.498 25.2063 119.186 25.9131C118.873 26.6199 118.717 27.4546 118.717 28.4174C118.717 29.3801 118.873 30.2149 119.186 30.9217C119.498 31.6285 119.941 32.1761 120.517 32.5615C121.093 32.9483 121.769 33.1403 122.547 33.1403Z" fill="var(--fill-0, white)" fill-opacity="0.2"/>
<path d="M88.8585 34.6581C87.3051 34.6581 85.9004 34.3887 84.6445 33.8486C83.3887 33.3084 82.4006 32.5644 81.6789 31.6136C80.9573 30.6628 80.5972 29.5974 80.5972 28.4174C80.5972 27.2374 80.9513 26.172 81.6581 25.2212C82.3649 24.2718 83.35 23.5263 84.6133 22.9862C85.8751 22.446 87.2902 22.1767 88.8585 22.1767C90.4269 22.1767 91.8375 22.446 93.0934 22.9862C94.3493 23.5263 95.3299 24.2703 96.0382 25.2212C96.745 26.172 97.0991 27.2374 97.0991 28.4174C97.0991 29.5974 96.745 30.6643 96.0382 31.6136C95.3314 32.5644 94.3493 33.3084 93.0934 33.8486C91.8375 34.3887 90.4254 34.6581 88.8585 34.6581ZM88.8585 33.1403C89.6353 33.1403 90.3123 32.9528 90.8882 32.5793C91.464 32.2043 91.9045 31.6612 92.2095 30.9485C92.5146 30.2357 92.6678 29.392 92.6678 28.4174C92.6678 27.4427 92.5146 26.599 92.2095 25.8863C91.9045 25.1735 91.464 24.6304 90.8882 24.2554C90.3123 23.8805 89.6353 23.6945 88.8585 23.6945C88.0818 23.6945 87.4048 23.8879 86.8289 24.2733C86.2531 24.6602 85.8096 25.2063 85.4972 25.9131C85.1847 26.6199 85.0284 27.4546 85.0284 28.4174C85.0284 29.3801 85.1847 30.2149 85.4972 30.9217C85.8096 31.6285 86.2531 32.1761 86.8289 32.5615C87.4048 32.9483 88.0803 33.1403 88.8585 33.1403Z" fill="var(--fill-0, white)" fill-opacity="0.2"/>
<path d="M61.6906 34.3203V22.5145H65.3109L70.3061 28.2656H70.4936L75.5082 22.5145H78.9633V34.3203H74.8014V27.2359H74.6139L69.9728 32.4647H69.2244L64.5833 27.2359H64.3958V34.3203H61.6906Z" fill="var(--fill-0, white)" fill-opacity="0.2"/>
<path d="M180.405 34.3203V22.5145H184.379V30.1211H184.567L190.811 22.5145H194.597V34.3203H190.623V26.7136H190.436L184.192 34.3203H180.405Z" fill="var(--fill-0, white)" fill-opacity="0.2"/>
<path d="M203.924 22.5145C202.537 22.5145 201.344 22.6603 200.346 22.9534C199.347 23.2466 198.579 23.6677 198.047 24.2182C197.512 24.7688 197.246 25.4324 197.246 26.2092C197.246 26.7493 197.398 27.2582 197.704 27.7359C198.009 28.2135 198.437 28.6078 198.984 28.9174C199.362 29.1316 199.773 29.2849 200.215 29.3831L196.062 34.3233H200.474L203.887 30.1747H205.823V34.3233H209.985V22.5174H203.929L203.924 22.5145ZM204.091 28.3832C203.591 28.3832 203.155 28.2983 202.78 28.1302C202.405 27.962 202.115 27.7225 201.907 27.413C201.698 27.1035 201.594 26.7464 201.594 26.3416C201.594 25.9369 201.698 25.5798 201.907 25.2703C202.115 24.9607 202.407 24.7227 202.78 24.553C203.155 24.3849 203.591 24.3001 204.091 24.3001H205.819V28.3817H204.091V28.3832Z" fill="var(--fill-0, white)" fill-opacity="0.2"/>
<path d="M156.139 34.7116C154.585 34.7116 153.18 34.4423 151.925 33.9022C150.669 33.362 149.681 32.618 148.959 31.6672C148.237 30.7163 147.877 29.6509 147.877 28.471C147.877 27.291 148.231 26.2255 148.938 25.2747C149.645 24.3254 150.63 23.5799 151.893 23.0397C153.155 22.4996 154.57 22.2303 156.139 22.2303C157.707 22.2303 159.118 22.4996 160.373 23.0397C161.629 23.5799 162.61 24.3239 163.318 25.2747C164.025 26.2255 164.379 27.291 164.379 28.471C164.379 29.6509 164.025 30.7178 163.318 31.6672C162.611 32.618 161.629 33.362 160.373 33.9022C159.118 34.4423 157.705 34.7116 156.139 34.7116ZM156.139 33.1939C156.915 33.1939 157.592 33.0064 158.168 32.6329C158.744 32.2579 159.185 31.7148 159.49 31.002C159.795 30.2893 159.948 29.4456 159.948 28.471C159.948 27.4963 159.795 26.6526 159.49 25.9399C159.185 25.2271 158.744 24.684 158.168 24.309C157.592 23.934 156.915 23.748 156.139 23.748C155.362 23.748 154.685 23.9415 154.109 24.3269C153.533 24.7137 153.09 25.2598 152.777 25.9666C152.465 26.6734 152.308 27.5082 152.308 28.471C152.308 29.4337 152.465 30.2685 152.777 30.9753C153.09 31.6821 153.533 32.2296 154.109 32.615C154.685 33.0019 155.36 33.1939 156.139 33.1939Z" fill="var(--fill-0, white)" fill-opacity="0.2"/>
<path d="M163.861 34.3277L169.667 22.4892H173.268L179.075 34.3277H174.642L170.937 26.0753H170.749L166.858 34.3277H163.861Z" fill="var(--fill-0, white)" fill-opacity="0.2"/>
<path d="M132.433 34.3203V22.5145H146.23V34.3203H142.068V24.9846H136.595V34.3203H132.433Z" fill="var(--fill-0, white)" fill-opacity="0.2"/>
<path d="M108.479 22.5145V27.166H102.902V22.5145H98.7404V34.3203H102.902V29.6361H108.479V34.3203H112.641V22.5145H108.479Z" fill="var(--fill-0, white)" fill-opacity="0.2"/>
<path d="M47.3894 28.4858L42.0892 22.5175H55.133L49.8327 28.4858C49.1825 29.2135 48.0412 29.2135 47.3983 28.4858H47.3894Z" fill="var(--fill-0, white)" fill-opacity="0.2"/>
<path d="M43.0697 16L32.435 27.785C30.8875 29.5096 28.1823 29.5096 26.6273 27.785L20.5652 21.0547L16 16H23.0174L29.5423 23.1677L36.0538 16H43.0697Z" fill="var(--fill-0, white)" fill-opacity="0.2"/>
<path d="M47.1454 31.4961L39.9509 39.3661C39.1727 40.2113 37.8364 40.2113 37.0597 39.3661L31.7594 33.5599C31.7222 33.5227 31.685 33.4855 31.6493 33.4483L29.8563 31.4871H35.4021L38.5001 34.9155L38.5046 34.92L41.5996 31.4961H47.1454Z" fill="var(--fill-0, white)" fill-opacity="0.2"/>
</g>
</g>
</svg>
