<svg preserveAspectRatio="none" width="100%" height="100%" overflow="visible" style="display: block;" viewBox="0 0 130 57" fill="none" xmlns="http://www.w3.org/2000/svg">
<g id="Frame 3">
<rect width="130" height="57" rx="24" fill="var(--fill-0, #232323)"/>
<g id="Vector">
<path d="M60.5458 21.5552C64.6507 21.5552 67.4148 24.5866 67.4148 29.1128C67.4148 33.639 64.6507 36.6703 60.5458 36.6703C56.8741 36.6703 54.2131 34.1788 53.7385 30.3585H51.9234V36.4212H48.7674V21.8044H51.9234V27.5141H53.7799C54.3575 23.8806 56.9359 21.5552 60.5458 21.5552ZM60.5458 33.8259C62.8974 33.8259 64.197 31.8326 64.197 29.1128C64.197 26.3929 62.8974 24.3997 60.5458 24.3997C58.1943 24.3997 56.8741 26.3929 56.8741 29.1128C56.8741 31.8326 58.1943 33.8259 60.5458 33.8259Z" fill="var(--fill-0, white)" fill-opacity="0.2"/>
<path d="M75.7389 29.6111V25.687H78.7506V36.4212H75.7389V32.2271H71.9639V36.4212H68.9522V25.687H71.9639V29.6111H75.7389Z" fill="var(--fill-0, white)" fill-opacity="0.2"/>
<path d="M83.672 31.9157L87.7977 25.687H90.6443V36.4212H87.6945V30.1509L83.5689 36.4212H80.7223V25.687H83.672V31.9157Z" fill="var(--fill-0, white)" fill-opacity="0.2"/>
<path d="M97.4395 25.4378C100.596 25.4378 102.803 27.6802 102.803 31.0644C102.803 34.4487 100.596 36.6703 97.4395 36.6703C94.2628 36.6703 92.0556 34.4487 92.0556 31.0644C92.0556 27.6802 94.2628 25.4378 97.4395 25.4378ZM97.4395 34.0543C98.9041 34.0543 99.7911 32.8085 99.7911 31.0644C99.7911 29.2996 98.9041 28.0539 97.4395 28.0539C95.9543 28.0539 95.0673 29.2996 95.0673 31.0644C95.0673 32.8085 95.9543 34.0543 97.4395 34.0543Z" fill="var(--fill-0, white)" fill-opacity="0.2"/>
<path d="M110.988 29.6111V25.687H114V36.4212H110.988V32.2271H107.213V36.4212H104.202V25.687H107.213V29.6111H110.988Z" fill="var(--fill-0, white)" fill-opacity="0.2"/>
<path d="M24.1083 31.9647C24.4262 31.7799 24.4262 31.318 24.1083 31.1332L16.7154 26.8371C16.3975 26.6523 16 26.8833 16 27.2528V34.0285C16 34.5436 16.2732 35.0194 16.7166 35.2765L16.8489 35.3532C17.2914 35.6097 17.8363 35.6095 18.2786 35.3525L24.1083 31.9647Z" fill="var(--fill-0, white)" fill-opacity="0.2"/>
<path d="M31.3815 38.6639C31.0635 38.8482 30.6665 38.6173 30.6665 38.248V29.6781C30.6665 29.3085 31.0639 29.0775 31.3819 29.2623L37.2246 32.6577C37.6674 32.9149 37.9401 33.3903 37.9401 33.9049V34.0285C37.9401 34.5436 37.6668 35.0194 37.2235 35.2765L31.3815 38.6639Z" fill="var(--fill-0, white)" fill-opacity="0.2"/>
<path d="M26.2558 16.1923C26.6979 15.9359 27.2422 15.9359 27.6843 16.1923L33.511 19.5708C33.8293 19.7554 33.8295 20.2177 33.5114 20.4026L26.1354 24.6889C25.8174 24.8737 25.4199 24.6427 25.4199 24.2732V17.5094C25.4199 16.9943 25.6932 16.5185 26.1365 16.2614L26.2558 16.1923Z" fill="var(--fill-0, white)" fill-opacity="0.2"/>
<path d="M22.5582 27.738C22.8761 27.9228 23.2736 27.6918 23.2736 27.3222V18.7522C23.2736 18.3828 22.8765 18.1518 22.5586 18.3362L16.7166 21.7236C16.2732 21.9807 16 22.4565 16 22.9716V23.0954C16 23.6099 16.2727 24.0854 16.7154 24.3427L22.5582 27.738Z" fill="var(--fill-0, white)" fill-opacity="0.2"/>
<path d="M37.2235 21.7236C37.6668 21.9807 37.9401 22.4565 37.9401 22.9716V29.7475C37.9401 30.117 37.5426 30.348 37.2246 30.1632L29.8317 25.867C29.5137 25.6823 29.5137 25.2203 29.8317 25.0355L35.6617 21.6477C36.104 21.3906 36.6488 21.3904 37.0913 21.647L37.2235 21.7236Z" fill="var(--fill-0, white)" fill-opacity="0.2"/>
<path d="M28.5202 32.727C28.5202 32.3575 28.1227 32.1264 27.8047 32.3113L20.4288 36.5975C20.1106 36.7825 20.1109 37.2446 20.4292 37.4293L26.2558 40.8077C26.6979 41.0641 27.2422 41.0641 27.6843 40.8077L27.8035 40.7386C28.2469 40.4816 28.5202 40.0057 28.5202 39.4907V32.727Z" fill="var(--fill-0, white)" fill-opacity="0.2"/>
</g>
</g>
</svg>
