<svg preserveAspectRatio="none" width="100%" height="100%" overflow="visible" style="display: block;" viewBox="0 0 119 24" fill="none" xmlns="http://www.w3.org/2000/svg">
<g id="Frame" clip-path="url(#clip0_128_278)">
<path id="Vector" fill-rule="evenodd" clip-rule="evenodd" d="M31.7016 18.9977C30.6862 18.9977 29.7087 18.8602 28.7694 18.5849C27.8302 18.3097 27.0495 17.929 26.4275 17.4425L27.3795 15.3113C28.6742 16.2202 30.1276 16.6745 31.7397 16.6745C32.5774 16.6745 33.2216 16.537 33.6722 16.2617C34.1229 15.9865 34.3482 15.6058 34.3482 15.1193C34.3482 14.6842 34.1419 14.3449 33.7294 14.1017C33.3168 13.8586 32.5837 13.6217 31.5302 13.3913C30.3498 13.1482 29.4073 12.8537 28.7028 12.5081C27.9983 12.1625 27.4842 11.7369 27.1606 11.2313C26.8369 10.7257 26.675 10.1017 26.675 9.35932C26.675 8.54011 26.9003 7.81051 27.351 7.17052C27.8016 6.53051 28.433 6.02812 29.2454 5.66332C30.0579 5.29852 30.9971 5.11612 32.0634 5.11612C33.0154 5.11612 33.9325 5.25691 34.8146 5.53852C35.6968 5.82012 36.3982 6.19771 36.9186 6.67132L35.9666 8.80252C34.7353 7.89371 33.4405 7.43932 32.0824 7.43932C31.3081 7.43932 30.6988 7.58971 30.2546 7.89052C29.8103 8.19132 29.5882 8.60411 29.5882 9.12892C29.5882 9.43612 29.6738 9.68891 29.8452 9.88732C30.0166 10.0857 30.3022 10.2617 30.702 10.4153C31.1018 10.5689 31.6698 10.7289 32.4061 10.8953C34.1324 11.2793 35.3731 11.7721 36.1284 12.3737C36.8837 12.9754 37.2613 13.8073 37.2613 14.8697C37.2613 16.1497 36.7725 17.1577 35.7952 17.8937C34.8179 18.6298 33.4533 18.9977 31.7016 18.9977ZM44.154 16.8472C44.4459 16.8472 44.7505 16.828 45.0679 16.7896L44.9156 18.9016C44.5474 18.9528 44.1793 18.9784 43.8113 18.9784C42.3896 18.9784 41.3519 18.6648 40.6982 18.0376C40.0445 17.4104 39.7177 16.4568 39.7177 15.1768V11.5672H37.947V9.39761H39.7177V6.63281H42.5927V9.39761H44.9346V11.5672H42.5927V15.1576C42.5927 16.284 43.1131 16.8472 44.154 16.8472ZM50.8368 18.9785C49.8467 18.9785 48.9772 18.7769 48.2283 18.3737C47.4795 17.9705 46.9018 17.401 46.4957 16.6649C46.0895 15.9289 45.8864 15.0617 45.8864 14.0633C45.8864 13.0649 46.0895 12.1978 46.4957 11.4617C46.9018 10.7257 47.4795 10.1593 48.2283 9.76252C48.9772 9.36571 49.8467 9.16732 50.8368 9.16732C51.8269 9.16732 52.6964 9.36571 53.4453 9.76252C54.1941 10.1593 54.7718 10.7257 55.1779 11.4617C55.5841 12.1978 55.7872 13.0649 55.7872 14.0633C55.7872 15.0617 55.5841 15.9289 55.1779 16.6649C54.7718 17.401 54.1941 17.9705 53.4453 18.3737C52.6964 18.7769 51.8269 18.9785 50.8368 18.9785ZM50.8368 16.7705C52.233 16.7705 52.9312 15.8681 52.9312 14.0633C52.9312 13.1545 52.7503 12.4762 52.3886 12.0281C52.0268 11.5801 51.5095 11.3561 50.8368 11.3561C49.4406 11.3561 48.7424 12.2585 48.7424 14.0633C48.7424 15.8681 49.4406 16.7705 50.8368 16.7705ZM63.746 11.5482L62.1276 11.721C61.328 11.7978 60.7632 12.0251 60.4331 12.4026C60.1031 12.7802 59.938 13.2827 59.938 13.9098V18.825H57.063V9.39785H59.8238V10.9914C60.2935 9.90343 61.2645 9.30824 62.7369 9.20585L63.5747 9.14825L63.746 11.5482ZM72.0997 9.41692H74.9176L69.2818 22.2809H66.3687L68.1584 18.3065L64.3124 9.41692H67.3016L69.6626 15.4073L72.0997 9.41692ZM81.5815 9.16736C82.3939 9.16736 83.111 9.36576 83.733 9.76256C84.3551 10.1594 84.8406 10.7258 85.1896 11.4618C85.5386 12.1978 85.7132 13.0522 85.7132 14.025C85.7132 14.9977 85.5386 15.8586 85.1896 16.6074C84.8406 17.3562 84.3518 17.9386 83.7235 18.3546C83.0952 18.7705 82.3812 18.9786 81.5815 18.9786C80.9342 18.9786 80.3502 18.841 79.8298 18.5658C79.3095 18.2905 78.9096 17.9098 78.6303 17.4234V18.825H75.7934V5.28896H78.6684V10.665C78.9477 10.1914 79.3443 9.82337 79.8584 9.56096C80.3725 9.29856 80.9469 9.16736 81.5815 9.16736ZM80.7441 16.7706C81.4168 16.7706 81.9372 16.5306 82.3054 16.0506C82.6735 15.5706 82.8576 14.8954 82.8576 14.025C82.8576 13.1674 82.6735 12.5114 82.3054 12.057C81.9372 11.6026 81.4168 11.3754 80.7441 11.3754C80.0713 11.3754 79.5509 11.609 79.1828 12.0762C78.8146 12.5434 78.6307 13.2058 78.6307 14.0634C78.6307 14.9338 78.8146 15.6026 79.1828 16.0698C79.5509 16.537 80.0713 16.7706 80.7441 16.7706ZM91.9587 18.9785C90.9686 18.9785 90.0991 18.7769 89.3502 18.3737C88.6013 17.9705 88.0237 17.4008 87.6176 16.6649C87.2114 15.9289 87.0083 15.0617 87.0083 14.0633C87.0083 13.0649 87.2114 12.1976 87.6176 11.4617C88.0237 10.7257 88.6013 10.1593 89.3502 9.76248C90.0991 9.36569 90.9686 9.16728 91.9587 9.16728C92.9488 9.16728 93.8183 9.36569 94.5672 9.76248C95.316 10.1593 95.8937 10.7257 96.2998 11.4617C96.7059 12.1976 96.9091 13.0649 96.9091 14.0633C96.9091 15.0617 96.7059 15.9289 96.2998 16.6649C95.8937 17.4008 95.316 17.9705 94.5672 18.3737C93.8183 18.7769 92.9488 18.9785 91.9587 18.9785ZM91.9586 16.7705C93.3549 16.7705 94.053 15.8681 94.053 14.0633C94.053 13.1544 93.8721 12.476 93.5103 12.0281C93.1486 11.58 92.6313 11.3561 91.9586 11.3561C90.5623 11.3561 89.8642 12.2585 89.8642 14.0633C89.8642 15.8681 90.5623 16.7705 91.9586 16.7705ZM102.678 18.9785C101.688 18.9785 100.818 18.7769 100.069 18.3737C99.3206 17.9705 98.743 17.401 98.3368 16.6649C97.9307 15.9289 97.7276 15.0617 97.7276 14.0633C97.7276 13.0649 97.9307 12.1978 98.3368 11.4617C98.743 10.7257 99.3206 10.1593 100.069 9.76252C100.818 9.36571 101.688 9.16732 102.678 9.16732C103.668 9.16732 104.538 9.36571 105.286 9.76252C106.035 10.1593 106.613 10.7257 107.019 11.4617C107.425 12.1978 107.628 13.0649 107.628 14.0633C107.628 15.0617 107.425 15.9289 107.019 16.6649C106.613 17.401 106.035 17.9705 105.286 18.3737C104.538 18.7769 103.668 18.9785 102.678 18.9785ZM102.678 16.7705C104.074 16.7705 104.772 15.8681 104.772 14.0633C104.772 13.1545 104.591 12.4762 104.23 12.0281C103.868 11.5801 103.351 11.3561 102.678 11.3561C101.282 11.3561 100.584 12.2585 100.584 14.0633C100.584 15.8681 101.282 16.7705 102.678 16.7705ZM119 18.825H115.478L111.898 14.6202V18.825H109.023V5.28896H111.898V13.4298L115.345 9.41696H118.772L114.85 13.9098L119 18.825Z" fill="var(--fill-0, white)"/>
<path id="Vector_2" d="M0.738132 22.1152L0.000856912 2.30507C-0.0234924 1.65082 0.473983 1.09635 1.12197 1.05551L17.8314 0.00239082C18.4911 -0.0391792 19.0592 0.466308 19.1003 1.13143C19.1019 1.15649 19.1027 1.18159 19.1027 1.2067V22.7934C19.1027 23.4598 18.567 24 17.906 24C17.8882 24 17.8703 23.9996 17.8524 23.9988L1.8802 23.2754C1.25815 23.2472 0.761485 22.7426 0.738132 22.1152Z" fill="var(--fill-0, #FF4785)"/>
<path id="Vector_3" fill-rule="evenodd" clip-rule="evenodd" d="M16.5174 0.0849609L14.2177 0.229897L14.1055 2.94975C14.1039 2.99156 14.1166 3.03267 14.1417 3.06602C14.2013 3.14522 14.3133 3.16072 14.3918 3.10064L15.4395 2.29921L16.3244 3.00217C16.3576 3.02851 16.3989 3.04214 16.4411 3.04066C16.5397 3.0372 16.6168 2.95384 16.6133 2.85448L16.5174 0.0849609ZM14.7275 9.1929C14.3065 9.52266 11.1707 9.74766 11.1707 9.2782C11.2369 7.48683 10.4416 7.4083 9.99977 7.4083C9.58002 7.4083 8.87308 7.53626 8.87308 8.49591C8.87308 9.47385 9.9062 10.0259 11.1188 10.6739C12.8415 11.5945 14.9263 12.7087 14.9263 15.5121C14.9263 18.1991 12.7613 19.6834 9.99977 19.6834C7.14989 19.6834 4.65941 18.5207 4.94068 14.4897C5.05115 14.0164 8.67424 14.1289 8.67424 14.4897C8.63006 16.1531 9.00563 16.6424 9.95559 16.6424C10.6846 16.6424 11.016 16.2371 11.016 15.5547C11.016 14.522 9.93958 13.9125 8.70128 13.2115C7.02459 12.2621 5.05115 11.1449 5.05115 8.58122C5.05115 6.02212 6.79642 4.31606 9.9114 4.31606C13.0264 4.31606 14.7275 5.99599 14.7275 9.1929Z" fill="var(--fill-0, white)"/>
</g>
<defs>
<clipPath id="clip0_128_278">
<rect width="119" height="24" fill="white"/>
</clipPath>
</defs>
</svg>
