<svg preserveAspectRatio="none" width="100%" height="100%" overflow="visible" style="display: block;" viewBox="0 0 708.816 139.84" fill="none" xmlns="http://www.w3.org/2000/svg">
<g id="&#208;&#161;&#208;&#186;&#208;&#178;&#208;&#190;&#209;&#128;&#209;&#134;&#208;&#190;&#208;&#178;">
<path d="M35.264 114C28.1707 114 21.9387 112.683 16.568 110.048C11.2987 107.312 7.19467 103.512 4.256 98.648C1.41867 93.6827 0 87.856 0 81.168V32.832C0 26.0427 1.41867 20.216 4.256 15.352C7.19467 10.488 11.2987 6.73866 16.568 4.10399C21.9387 1.368 28.1707 0 35.264 0C42.4587 0 48.64 1.368 53.808 4.10399C59.0773 6.73866 63.1813 10.488 66.12 15.352C69.0587 20.216 70.528 26.0427 70.528 32.832H51.376C51.376 27.5627 49.9573 23.56 47.12 20.824C44.384 18.088 40.432 16.72 35.264 16.72C30.096 16.72 26.0933 18.088 23.256 20.824C20.4187 23.56 19 27.512 19 32.68V81.168C19 86.336 20.4187 90.3387 23.256 93.176C26.0933 95.912 30.096 97.28 35.264 97.28C40.432 97.28 44.384 95.912 47.12 93.176C49.9573 90.3387 51.376 86.336 51.376 81.168H70.528C70.528 87.7547 69.0587 93.5307 66.12 98.496C63.1813 103.461 59.0773 107.312 53.808 110.048C48.64 112.683 42.4587 114 35.264 114Z" fill="var(--fill-0, #F2F1EC)"/>
<path d="M92.5086 112.48V28.88H111.509V61.712H123.973L144.341 28.88H165.621L140.389 69.312L166.077 112.48H144.341L123.973 77.824H111.509V112.48H92.5086Z" fill="var(--fill-0, #F2F1EC)"/>
<path d="M183.041 112.48V28.88H220.129C229.756 28.88 237.305 30.9067 242.777 34.96C248.351 38.912 251.137 44.384 251.137 51.376C251.137 57.0507 248.959 61.6107 244.601 65.056C240.345 68.5013 234.671 70.224 227.577 70.224V68.856C235.279 68.856 241.46 70.68 246.121 74.328C250.783 77.8747 253.113 82.6373 253.113 88.616C253.113 96.0133 250.276 101.84 244.601 106.096C239.028 110.352 231.327 112.48 221.497 112.48H183.041ZM201.737 98.04H220.889C225.145 98.04 228.489 97.0773 230.921 95.152C233.353 93.2267 234.569 90.6427 234.569 87.4C234.569 83.9547 233.353 81.2693 230.921 79.344C228.489 77.4187 225.145 76.456 220.889 76.456H201.737V98.04ZM201.737 63.688H220.281C224.031 63.688 227.02 62.776 229.249 60.952C231.479 59.128 232.593 56.6453 232.593 53.504C232.593 50.3627 231.479 47.88 229.249 46.056C227.121 44.1307 224.132 43.168 220.281 43.168H201.737V63.688Z" fill="var(--fill-0, #F2F1EC)"/>
<path d="M308.078 113.848C300.985 113.848 294.803 112.531 289.534 109.896C284.366 107.16 280.313 103.36 277.374 98.496C274.537 93.5307 273.118 87.704 273.118 81.016V60.344C273.118 53.656 274.537 47.88 277.374 43.016C280.313 38.0507 284.366 34.2507 289.534 31.616C294.803 28.88 300.985 27.512 308.078 27.512C315.273 27.512 321.454 28.88 326.622 31.616C331.79 34.2507 335.793 38.0507 338.63 43.016C341.569 47.88 343.038 53.6053 343.038 60.192V81.016C343.038 87.704 341.569 93.5307 338.63 98.496C335.793 103.36 331.79 107.16 326.622 109.896C321.454 112.531 315.273 113.848 308.078 113.848ZM308.078 97.28C313.145 97.28 317.046 95.912 319.782 93.176C322.619 90.3387 324.038 86.2853 324.038 81.016V60.344C324.038 54.9733 322.619 50.92 319.782 48.184C317.046 45.448 313.145 44.08 308.078 44.08C303.113 44.08 299.211 45.448 296.374 48.184C293.537 50.92 292.118 54.9733 292.118 60.344V81.016C292.118 86.2853 293.537 90.3387 296.374 93.176C299.211 95.912 303.113 97.28 308.078 97.28Z" fill="#FF4500"/>
<path d="M365.323 139.84V28.88H383.867V44.84H388.122L383.867 49.248C383.867 42.4587 385.893 37.1387 389.947 33.288C394 29.336 399.472 27.36 406.362 27.36C414.773 27.36 421.512 30.248 426.578 36.024C431.645 41.8 434.178 49.552 434.178 59.28V81.928C434.178 88.4133 433.013 94.088 430.682 98.952C428.453 103.715 425.261 107.413 421.107 110.048C416.952 112.683 412.037 114 406.362 114C399.472 114 394 112.075 389.947 108.224C385.893 104.272 383.867 98.9013 383.867 92.112L388.122 96.52H383.715L384.323 116.432V139.84H365.323ZM399.674 97.584C404.539 97.584 408.338 96.1653 411.074 93.328C413.81 90.4907 415.178 86.4373 415.178 81.168V60.192C415.178 54.9227 413.81 50.8693 411.074 48.032C408.338 45.1947 404.539 43.776 399.674 43.776C394.912 43.776 391.163 45.2453 388.427 48.184C385.691 51.0213 384.323 55.024 384.323 60.192V81.168C384.323 86.336 385.691 90.3893 388.427 93.328C391.163 96.1653 394.912 97.584 399.674 97.584Z" fill="var(--fill-0, #F2F1EC)"/>
<path d="M514.375 133.76V112.48H456.615V28.88H475.615V95H501.455V28.88H520.455V95H531.855V133.76H514.375Z" fill="var(--fill-0, #F2F1EC)"/>
<path d="M581.5 113.848C574.406 113.848 568.225 112.531 562.956 109.896C557.788 107.16 553.734 103.36 550.796 98.496C547.958 93.5307 546.54 87.704 546.54 81.016V60.344C546.54 53.656 547.958 47.88 550.796 43.016C553.734 38.0507 557.788 34.2507 562.956 31.616C568.225 28.88 574.406 27.512 581.5 27.512C588.694 27.512 594.876 28.88 600.044 31.616C605.212 34.2507 609.214 38.0507 612.052 43.016C614.99 47.88 616.46 53.6053 616.46 60.192V81.016C616.46 87.704 614.99 93.5307 612.052 98.496C609.214 103.36 605.212 107.16 600.044 109.896C594.876 112.531 588.694 113.848 581.5 113.848ZM581.5 97.28C586.566 97.28 590.468 95.912 593.204 93.176C596.041 90.3387 597.46 86.2853 597.46 81.016V60.344C597.46 54.9733 596.041 50.92 593.204 48.184C590.468 45.448 586.566 44.08 581.5 44.08C576.534 44.08 572.633 45.448 569.796 48.184C566.958 50.92 565.54 54.9733 565.54 60.344V81.016C565.54 86.2853 566.958 90.3387 569.796 93.176C572.633 95.912 576.534 97.28 581.5 97.28Z" fill="var(--fill-0, #F2F1EC)"/>
<path d="M638.744 112.48V28.88H675.832C685.459 28.88 693.008 30.9067 698.48 34.96C704.054 38.912 706.84 44.384 706.84 51.376C706.84 57.0507 704.662 61.6107 700.304 65.056C696.048 68.5013 690.374 70.224 683.28 70.224V68.856C690.982 68.856 697.163 70.68 701.824 74.328C706.486 77.8747 708.816 82.6373 708.816 88.616C708.816 96.0133 705.979 101.84 700.304 106.096C694.731 110.352 687.03 112.48 677.2 112.48H638.744ZM657.44 98.04H676.592C680.848 98.04 684.192 97.0773 686.624 95.152C689.056 93.2267 690.272 90.6427 690.272 87.4C690.272 83.9547 689.056 81.2693 686.624 79.344C684.192 77.4187 680.848 76.456 676.592 76.456H657.44V98.04ZM657.44 63.688H675.984C679.734 63.688 682.723 62.776 684.952 60.952C687.182 59.128 688.296 56.6453 688.296 53.504C688.296 50.3627 687.182 47.88 684.952 46.056C682.824 44.1307 679.835 43.168 675.984 43.168H657.44V63.688Z" fill="var(--fill-0, #F2F1EC)"/>
</g>
</svg>
