<svg width="28" height="45" viewBox="0 0 28 45" fill="none" xmlns="http://www.w3.org/2000/svg">
<rect x="12" y="8.99988" width="4" height="6" rx="2" fill="white"/>
<path fill-rule="evenodd" clip-rule="evenodd" d="M21.3379 1.71155C19.2346 0.57782 16.7493 -0.00012207 14 -0.00012207C11.2507 -0.00012207 8.76538 0.57782 6.66211 1.71155C4.54028 2.85529 2.85547 4.54016 1.71167 6.66193C0.577881 8.7652 0 11.2507 0 13.9999V30.9999C0 33.749 0.577881 36.2346 1.71167 38.3378C2.85547 40.4596 4.54028 42.1445 6.66211 43.2882C8.76538 44.4219 11.2507 44.9999 14 44.9999C16.7493 44.9999 19.2346 44.4219 21.3379 43.2882C23.4597 42.1445 25.1445 40.4596 26.2883 38.3378C27.4221 36.2346 28 33.749 28 30.9999V13.9999C28 11.2507 27.4221 8.7652 26.2883 6.66193C25.1445 4.54016 23.4597 2.85529 21.3379 1.71155ZM8.56006 5.2326C10.0559 4.42627 11.8896 3.99988 14 3.99988C16.1104 3.99988 17.9441 4.42627 19.4399 5.2326C20.8738 6.00549 21.9944 7.1261 22.7673 8.55994C23.5735 10.0557 24 11.8896 24 13.9999V30.9999C24 33.1102 23.5735 34.944 22.7673 36.4398C21.9944 37.8737 20.8738 38.9943 19.4399 39.7672C17.9441 40.5735 16.1104 40.9999 14 40.9999C11.8896 40.9999 10.0559 40.5735 8.56006 39.7672C7.12622 38.9943 6.00562 37.8737 5.23267 36.4398C4.42651 34.944 4 33.1102 4 30.9999V13.9999C4 11.8896 4.42651 10.0557 5.23267 8.55994C6.00562 7.1261 7.12622 6.00549 8.56006 5.2326Z" fill="white"/>
</svg>
