<svg xmlns="http://www.w3.org/2000/svg" xmlns:xlink="http://www.w3.org/1999/xlink" width="63" height="65" fill="#9B9B9B" viewBox="0 0 63 65">
    <path d="M 11.9 0.8 C 17.1 0.2 26 0 31.5 0 c 5.4 0 14.4 0.1 19.6 0.8 c 7.1 1 10.2 4.4 10.8 11.6 C 62.4 16.6 63 25.7 63 32.5 c 0 6.8 -0.1 14.8 -1 20.1 c -1.2 6.9 -4.4 10.5 -10.8 11.5 C 45.9 65 36.4 65 31.5 65 c -4.9 0 -14.4 0 -19.6 -0.8 c -6.6 -1.1 -9.7 -4.6 -10.8 -11.5 C 0.1 47.3 0 39.7 0 32.5 c 0 -7.1 0.4 -14.8 1 -20 C 1.8 5.6 4.6 1.8 11.9 0.8 z m 44.9 14.8 c 0.6 -4 -1.9 -7.7 -3.2 -8.3 c -3.4 2.8 -7 4.2 -10.8 4.2 H 27.1 c -10.8 0 -16.4 2.5 -21.3 8 a 204.3 204.3 0 0 0 -0.5 11.5 c 0.3 -0.4 0.5 -0.8 0.8 -1.2 c 2.3 -3.3 5.1 -7.4 11.5 -8.2 V 40.4 c -0.5 7.6 -6.9 6.5 -11.7 4.2 c 0.1 4.9 0.6 8.8 1.5 10.1 c 2 0.6 4.4 0.8 6.4 0.8 c 7.1 0 12.7 -4.9 12.7 -15.1 V 20.4 h 12 v 33.6 h 17.2 c 0.6 -1.2 1.2 -4.4 1.2 -8.3 h -9.5 V 20 c 3.2 -0.5 6.5 -2.1 9.2 -4.4 z"/>
</svg>
