<svg width="63" height="65" viewBox="0 0 63 65" fill="none" xmlns="http://www.w3.org/2000/svg">
<path fill-rule="evenodd" clip-rule="evenodd" d="M11.8816 0.844238C17.0625 0.210938 26.0427 0 31.5 0C36.8882 0 45.8684 0.140625 51.1184 0.844238C58.2335 1.8291 61.2731 5.27588 61.9639 12.4514C62.3783 16.6018 63 25.6765 63 32.5C63 39.3235 62.8618 47.343 61.9639 52.6191C60.7203 59.5129 57.6118 63.1006 51.1184 64.1558C45.9375 65 36.4047 65 31.5 65C26.5953 65 17.0625 65 11.8816 64.1558C5.31909 63.1006 2.14148 59.5129 1.03613 52.6191C0.138184 47.343 0 39.6753 0 32.5C0 25.395 0.414429 17.7273 1.03613 12.4514C1.79602 5.55737 4.6283 1.75854 11.8816 0.844238ZM56.783 15.6167C57.3356 11.6069 54.9178 7.94897 53.5363 7.31592C50.1514 10.1299 46.4901 11.5366 42.6908 11.5366H27.1481C16.3026 11.5366 10.7764 14.0691 5.8717 19.4858C5.66455 22.2998 5.45728 26.3799 5.38818 31.0227C5.65686 30.6475 5.92896 30.2505 6.21021 29.8401C8.46008 26.5579 11.2983 22.417 17.6842 21.6665V40.3787C17.2007 47.9761 10.7764 46.8506 6.00989 44.5291C6.14807 49.4534 6.5625 53.3225 7.52966 54.6589C9.53296 55.2217 11.9507 55.5032 13.954 55.5032C21.0691 55.5032 26.6646 50.5789 26.6646 40.449V20.4004H38.6151V53.9556H55.8158C56.4375 52.7595 57.0592 49.594 57.0592 45.6548H47.5955V19.9783C50.7731 19.4858 54.0889 17.8679 56.783 15.6167Z" fill="#9B9B9B"/>
</svg>
