<svg xmlns="http://www.w3.org/2000/svg" width="32" height="32" viewBox="0 0 32 32">
    <path fill-rule="evenodd" d="M10.75 7.089L3 7v16.701h8.283s4.6-.042 5.068-4.132c.47-4.09-2.9-4.882-2.9-4.882s2.728-.828 2.141-4.33c-.586-3.5-4.842-3.268-4.842-3.268zm9.208 2.556v-1.74h6.716v1.74h-6.716zM6.526 13.647l3.207.02c.205 0 .745-.018 1.189-.126.19-.047.56-.179.815-.418.106-.099.301-.378.414-.708.11-.322.138-.694.138-.837 0-.262-.046-.504-.138-.727a1.554 1.554 0 0 0-.414-.578 1.955 1.955 0 0 0-.702-.382 3.308 3.308 0 0 0-1.014-.138l-3.495-.02v3.914zm3.504 7.046l-3.504-.023v-4.326l3.819.023c.428 0 .797.05 1.107.152.31.102.566.243.767.422.201.18.352.393.452.64.1.246.151.513.151.803 0 .157-.031.57-.15.924-.124.366-.337.674-.453.784-.279.263-.683.41-.89.46-.485.12-1.075.141-1.3.141zm10.668-2.247l.001.019c.006.246.066 2.497 1.896 3.028 2.202.64 3.183-1.256 3.26-1.475h2.883c-.074.36-1.247 5.26-7.625 3.663-3.78-.946-3.724-5.455-3.715-6.137v-.06c0-.378.016-2.394 1.594-4.252 1.578-1.859 3.824-1.859 4.28-1.859.454 0 2.794 0 4.22 1.64 1.844 2.123 1.479 5.523 1.479 5.523l-8.273-.09zm4.834-3.142c.123.317.196.664.218 1.04h-4.953c.023-.354.1-.688.23-1.001.13-.313.303-.59.52-.83.216-.239.467-.429.754-.569.287-.14.598-.21.934-.21.372 0 .71.066 1.012.2.302.132.56.314.777.546.216.233.385.507.508.824z"/>
</svg>
