<svg width="32" height="32" viewBox="0 0 32 32" fill="none" xmlns="http://www.w3.org/2000/svg">
<path fill-rule="evenodd" clip-rule="evenodd" d="M27.0571 11.3285C27.363 12.0537 27.5996 12.8129 27.7568 13.5838C27.9189 14.3726 28.0005 15.1862 28 15.9993C28 16.8133 27.9185 17.6269 27.7563 18.4167C27.5991 19.1876 27.363 19.9473 27.0566 20.6715C26.7563 21.3827 26.384 22.07 25.9504 22.7108C25.5208 23.3457 25.0276 23.9423 24.4854 24.4855C23.9431 25.0282 23.3459 25.52 22.7104 25.9496C22.0696 26.3826 21.3833 26.7554 20.6721 27.0558C19.9468 27.3626 19.1885 27.5971 18.4165 27.7553C17.6267 27.9184 16.8132 28 16.0005 28C15.1868 28 14.3743 27.9184 13.5835 27.7553C12.8125 27.5971 12.0527 27.3631 11.3284 27.0558C10.6172 26.7554 9.93091 26.383 9.28906 25.9496C8.65405 25.52 8.0564 25.0277 7.51416 24.4855C6.97144 23.9423 6.47925 23.3462 6.05005 22.7108C5.61694 22.07 5.24414 21.3827 4.94385 20.6715C4.63745 19.9468 4.40137 19.1876 4.24365 18.4167C4.08203 17.6274 4 16.8138 4 15.9993C4 15.1862 4.08203 14.3726 4.24365 13.5838C4.40137 12.8129 4.63696 12.0537 4.94409 11.3285C5.24463 10.6164 5.61694 9.93095 6.05054 9.29019C6.47974 8.65524 6.97192 8.05768 7.51465 7.51546C8.05688 6.97179 8.65405 6.47908 9.28955 6.05045C9.9314 5.61647 10.6177 5.24463 11.3289 4.94319C12.0537 4.63834 12.813 4.40096 13.584 4.24466C14.3748 4.08252 15.1873 4 16.001 4C16.8137 4 17.6272 4.08252 18.417 4.24466C19.1885 4.40096 19.9473 4.63785 20.6726 4.94319C21.3838 5.24463 22.0701 5.61598 22.7109 6.05045C23.3459 6.47908 23.9436 6.97227 24.4858 7.51546C25.0286 8.05768 25.5212 8.65475 25.9509 9.29019C26.384 9.93095 26.7568 10.6164 27.0571 11.3285ZM19.1072 15.5619C22.6289 15.1192 26.0969 15.8658 26.2449 15.8978C26.2217 13.4653 25.3523 11.2353 23.9148 9.49066C23.8958 9.51881 22.2527 11.895 18.2048 13.5464C18.4436 14.0343 18.6733 14.5313 18.8865 15.0328C18.9622 15.21 19.0354 15.3867 19.1072 15.5619ZM22.7693 8.30865C22.7437 8.34845 21.2844 10.5698 17.4163 12.0197C15.6641 8.80087 13.7393 6.24413 13.5854 6.04123C14.3604 5.85336 15.168 5.75191 16.0005 5.75191C18.5959 5.75191 20.9634 6.71887 22.7693 8.30865ZM11.6274 6.73102C11.7639 6.91402 13.6597 9.48338 15.4333 12.6358C10.5125 13.943 6.24194 13.892 5.97095 13.8872C6.63696 10.713 8.76953 8.08099 11.6274 6.73102ZM5.75854 15.7301L5.75513 15.8262C5.75415 15.8608 5.75317 15.8955 5.75269 15.9303L5.75195 15.9993C5.75195 18.6322 6.74561 21.0327 8.3772 22.8486C8.3772 22.8479 8.37671 22.8469 8.37598 22.8461L8.37354 22.8438C8.37354 22.8438 11.179 17.8672 16.7097 16.0799C16.8433 16.0362 16.978 15.9954 17.1135 15.9575C16.8567 15.3741 16.5757 14.7901 16.282 14.2153C11.0222 15.7895 5.9729 15.6801 5.7627 15.6755L5.76074 15.6755L5.75854 15.7301ZM16.0005 26.2481C13.5205 26.2481 11.2456 25.3666 9.47266 23.8996C9.52832 23.9448 9.57715 23.9832 9.61548 24.0128C9.66968 24.0547 9.70239 24.0787 9.70239 24.0787C9.70239 24.0787 11.667 19.7943 17.7444 17.6769L17.7715 17.6675L17.8127 17.6551C19.2551 21.4021 19.8503 24.5404 20.0022 25.436C18.772 25.9593 17.4202 26.2481 16.0005 26.2481ZM19.7327 17.1798C21.0769 20.8734 21.623 23.8811 21.7273 24.5001C24.0286 22.9457 25.6631 20.4827 26.1194 17.6274C25.9082 17.558 23.0405 16.6507 19.7327 17.1798ZM13.5435 6.05141C13.5435 6.05141 13.5454 6.05045 13.5454 6.04947C13.5352 6.05336 13.5237 6.0553 13.5134 6.05821L13.5322 6.05415L13.5435 6.05141Z" fill="#2C3134"/>
</svg>
