<svg xmlns="http://www.w3.org/2000/svg" xmlns:xlink="http://www.w3.org/1999/xlink" width="32" height="32" viewBox="0 0 32 32">
    <path fill-rule="evenodd" d="M 27.1 11.3 a 12 12 0 0 1 0.9 4.7 c 0 0.8 -0.1 1.6 -0.2 2.4 a 11.9 11.9 0 0 1 -1.8 4.3 a 12.1 12.1 0 0 1 -5.3 4.3 A 12 12 0 0 1 16 28 a 12 12 0 0 1 -8.5 -3.5 A 12 12 0 0 1 4 16 a 11.9 11.9 0 0 1 2 -6.7 a 12.1 12.1 0 0 1 5.3 -4.3 A 12 12 0 0 1 16 4 a 12 12 0 0 1 4.7 0.9 a 12 12 0 0 1 3.8 2.6 c 0.5 0.5 1 1.1 1.5 1.8 c 0.4 0.6 0.8 1.3 1.1 2 z m -8 4.2 c 3.5 -0.4 7 0.3 7.1 0.3 a 10.2 10.2 0 0 0 -2.3 -6.4 c 0 0 -1.7 2.4 -5.7 4.1 a 30.8 30.8 0 0 1 0.9 2 z m 3.7 -7.3 c 0 0 -1.5 2.3 -5.4 3.7 a 52.1 52.1 0 0 0 -3.8 -6 a 10.2 10.2 0 0 1 9.2 2.3 z M 11.6 6.7 a 61.5 61.5 0 0 1 3.8 5.9 c -4.9 1.3 -9.2 1.3 -9.5 1.3 a 10.3 10.3 0 0 1 5.7 -7.2 z m -5.9 9 l 0 0.1 l 0 0.1 l 0 0.1 a 10.2 10.2 0 0 0 2.6 6.8 l 0 0 s 2.8 -5 8.3 -6.8 c 0.1 0 0.3 -0.1 0.4 -0.1 a 33.6 33.6 0 0 0 -0.8 -1.7 c -5.3 1.6 -10.3 1.5 -10.5 1.5 h 0 l 0 0.1 z M 16 26.2 a 10.2 10.2 0 0 1 -6.4 -2.2 l 0.1 0.1 s 2 -4.3 8 -6.4 l 0 0 l 0 0 c 1.4 3.7 2 6.9 2.2 7.8 c -1.2 0.5 -2.6 0.8 -4 0.8 z m 3.7 -9.1 c 1.3 3.7 1.9 6.7 2 7.3 a 10.3 10.3 0 0 0 4.4 -6.9 c -0.2 -0.1 -3.1 -1 -6.4 -0.4 z M 13.5 6 s 0 0 0 0 l 0 0 l 0 0 l 0 0 z"/>
</svg>
