<svg xmlns="http://www.w3.org/2000/svg" width="32" height="32" viewBox="0 0 32 32">
    <path d="M10.798 12.264h-.022C9.698 12.264 9 11.538 9 10.632 9 9.705 9.72 9 10.819 9c1.1 0 1.777.705 1.798 1.632 0 .906-.699 1.632-1.82 1.632zM12.405 23H9.19v-9.446h3.215V23zm8.38 0H24v-5.417c0-2.902-1.586-4.252-3.702-4.252-1.706 0-2.47.916-2.898 1.56v-1.337h-3.215c.042.885 0 9.446 0 9.446H17.4v-5.276c0-.282.02-.564.106-.766.232-.564.762-1.148 1.65-1.148 1.163 0 1.628.866 1.628 2.135V23z"/>
    <path d="M27 3H5a2 2 0 0 0-2 2v22a2 2 0 0 0 2 2h22a2 2 0 0 0 2-2V5a2 2 0 0 0-2-2zM5 27V5h22v22H5z"/>
</svg>
